<?xml version="1.0" encoding="UTF-8" standalone="no"?>
<!-- Created with Inkscape (http://www.inkscape.org/) -->

<svg
   width="210mm"
   height="297mm"
   viewBox="0 0 210 297"
   version="1.1"
   id="svg1"
   xml:space="preserve"
   inkscape:version="1.3.2 (091e20e, 2023-11-25, custom)"
   sodipodi:docname="logo.svg"
   xmlns:inkscape="http://www.inkscape.org/namespaces/inkscape"
   xmlns:sodipodi="http://sodipodi.sourceforge.net/DTD/sodipodi-0.dtd"
   xmlns="http://www.w3.org/2000/svg"
   xmlns:svg="http://www.w3.org/2000/svg"><sodipodi:namedview
     id="namedview1"
     pagecolor="#ffffff"
     bordercolor="#000000"
     borderopacity="0.25"
     inkscape:showpageshadow="2"
     inkscape:pageopacity="0.0"
     inkscape:pagecheckerboard="0"
     inkscape:deskcolor="#d1d1d1"
     inkscape:document-units="mm"
     showguides="true"
     inkscape:lockguides="true"
     inkscape:zoom="1.4707634"
     inkscape:cx="528.29707"
     inkscape:cy="672.77986"
     inkscape:window-width="1920"
     inkscape:window-height="1009"
     inkscape:window-x="-8"
     inkscape:window-y="-8"
     inkscape:window-maximized="1"
     inkscape:current-layer="layer1"><sodipodi:guide
       position="43.354753,137.25303"
       orientation="0,-1"
       id="guide1"
       inkscape:locked="true" /><sodipodi:guide
       position="100.02175,147.68696"
       orientation="1,0"
       id="guide2"
       inkscape:locked="true" /></sodipodi:namedview><defs
     id="defs1"><rect
       x="180.85846"
       y="693.51741"
       width="451.46623"
       height="48.274251"
       id="rect92" /><inkscape:perspective
       sodipodi:type="inkscape:persp3d"
       inkscape:vp_x="-24.275891 : 124.36273 : 1"
       inkscape:vp_y="0 : 700.24248 : 0"
       inkscape:vp_z="325.01375 : 124.36273 : 1"
       inkscape:persp3d-origin="150.36893 : 89.700725 : 1"
       id="perspective53" /></defs><g
     inkscape:groupmode="layer"
     id="layer2"
     inkscape:label="ayp roofing old vector"
     style="display:none"><path
       id="path53"
       style="fill:#18ffff;fill-opacity:1;stroke-width:0.264583"
       d="m 63.042663,174.19402 -1.920813,0.0403 -3.442684,9.20616 2.001429,0.0403 0.48059,-1.44126 h 4.482931 l 0.480074,1.36116 h 1.80144 z m -0.840259,2.59725 1.562179,3.50625 -2.901115,0.0481 z" /><path
       style="fill:#00ffff;fill-opacity:1;stroke-width:0.264583"
       d="m 69.647442,181.75941 h 1.801234 l 0.04003,1.48102 -1.84126,-0.0801 z"
       id="path60" /><path
       style="fill:#00ffff;fill-opacity:1;stroke-width:0.264583"
       d="m 74.01043,174.07415 2.201505,-0.04 2.60178,3.48238 2.521728,-3.48238 2.201505,0.04 -3.842628,5.08348 0.200136,4.0828 -2.001369,-0.04 -0.04003,-4.28293 z"
       id="path61" /><path
       style="fill:#00ffff;fill-opacity:1;stroke-width:0.264583"
       d="m 86.407622,181.45925 h 1.703099 l 0.06813,1.56685 -1.737162,0.0681 z"
       id="path62" /><path
       id="path64"
       style="fill:#00ffff;fill-opacity:1;stroke-width:0.264583"
       d="m 90.54486,173.84468 v 0.0956 l 0.136426,9.08058 1.894975,0.0269 -0.05426,-3.545 5.044653,-0.0408 c 0,0 1.240913,-0.80446 1.336353,-1.94975 0.09544,-1.14529 0.286207,-3.66767 -1.731678,-3.65404 -2.017888,0.0136 -6.626469,-0.0134 -6.626469,-0.0134 z m 6.394442,1.64952 c 0.572646,-0.0273 0.395648,0.92716 0.409278,1.59525 0.01363,0.66808 -0.559139,0.66817 -0.559139,0.66817 l -4.294829,0.0682 v -2.26343 c 0,0 3.872048,-0.0409 4.44469,-0.0682 z" /><path
       id="path64-4"
       style="fill:#00ffff;fill-opacity:1;stroke-width:0.264583"
       d="m 105.69783,173.49824 v 0.0956 l 0.13643,9.08058 1.89497,0.0269 -0.0543,-3.545 5.04465,-0.0408 c 0,0 1.24091,-0.80446 1.33635,-1.94975 0.0954,-1.14529 0.28621,-3.66767 -1.73167,-3.65404 -2.01789,0.0136 -6.62647,-0.0134 -6.62647,-0.0134 z m 6.39444,1.64952 c 0.57264,-0.0273 0.39565,0.92716 0.40928,1.59525 0.0136,0.66808 -0.55914,0.66817 -0.55914,0.66817 l -4.29482,0.0682 v -2.26343 c 0,0 3.87204,-0.0409 4.44468,-0.0682 z" /><path
       style="fill:#00ffff;fill-opacity:1;stroke-width:0.264583"
       d="m 110.55418,179.04691 2.45678,3.60628 1.84822,-0.0451 -2.20884,-3.58374 z"
       id="path65" /><path
       id="path68"
       style="fill:#18ffff;fill-opacity:1;stroke-width:0.264583"
       d="m 121.80393,173.34394 a 4.8814974,4.5952859 0 0 0 -4.88136,4.59558 4.8814974,4.5952859 0 0 0 4.88136,4.59507 4.8814974,4.5952859 0 0 0 4.88136,-4.59507 4.8814974,4.5952859 0 0 0 -4.88136,-4.59558 z m -0.0636,1.87637 a 2.7508111,2.7349105 0 0 1 2.75073,2.73472 2.7508111,2.7349105 0 0 1 -2.75073,2.73523 2.7508111,2.7349105 0 0 1 -2.75074,-2.73523 2.7508111,2.7349105 0 0 1 2.75074,-2.73472 z" /><path
       id="path68-6"
       style="fill:#18ffff;fill-opacity:1;stroke-width:0.264583"
       d="m 133.68094,173.22882 a 4.8814974,4.5952859 0 0 0 -4.88136,4.59558 4.8814974,4.5952859 0 0 0 4.88136,4.59507 4.8814974,4.5952859 0 0 0 4.88136,-4.59507 4.8814974,4.5952859 0 0 0 -4.88136,-4.59558 z m -0.0636,1.87637 a 2.7508111,2.7349105 0 0 1 2.75073,2.73472 2.7508111,2.7349105 0 0 1 -2.75073,2.73523 2.7508111,2.7349105 0 0 1 -2.75074,-2.73523 2.7508111,2.7349105 0 0 1 2.75074,-2.73472 z" /><path
       style="fill:#18ffff;fill-opacity:1;stroke-width:0.264583"
       d="m 140.83711,173.34411 6.83728,-0.19081 0.0636,1.62187 h -5.18361 v 2.41689 l 3.91156,-0.0318 0.0636,1.52647 -4.00696,0.0636 0.1272,3.52994 -1.87627,-0.0318 z"
       id="path69" /><path
       style="fill:#18ffff;fill-opacity:1;stroke-width:0.264583"
       d="m 150.3457,173.1851 h 1.78087 l 0.159,9.12697 h -1.87627 z"
       id="path70" /><path
       style="fill:#18ffff;fill-opacity:1;stroke-width:0.264583"
       d="m 156.44135,175.49913 0.20238,6.74607 -1.91139,-0.0225 0.0225,-9.17465 2.38361,-0.0225 4.42992,6.45374 -0.13492,-6.5212 h 1.97885 l 0.15741,9.17465 -2.45108,0.045 z"
       id="path71" /><path
       id="path74"
       style="fill:#18ffff;fill-opacity:1;stroke-width:0.283015"
       d="m 170.70947,172.50833 a 4.7559805,4.7784677 0 0 0 -4.7563,4.77852 4.7559805,4.7784677 0 0 0 4.7563,4.77852 4.7559805,4.7784677 0 0 0 4.75578,-4.77852 4.7559805,4.7784677 0 0 0 -0.0563,-0.7307 h -1.86294 a 2.9457846,2.9232976 0 0 1 0.076,0.65215 2.9457846,2.9232976 0 0 1 -2.94608,2.92334 2.9457846,2.9232976 0 0 1 -2.94555,-2.92334 2.9457846,2.9232976 0 0 1 2.94555,-2.92333 2.9457846,2.9232976 0 0 1 2.15801,0.93379 l 1.30483,-1.13636 c 0.0497,0.004 0.10054,0.0256 0.15141,0.061 a 4.7559805,4.7784677 0 0 0 -3.58014,-1.63504 z m 4.66277,3.8902 c 0.006,0.0184 0.0162,0.0518 0.0207,0.0667 a 4.7559805,4.7784677 0 0 0 -0.016,-0.0667 z" /><path
       style="fill:#18ffff;fill-opacity:1;stroke-width:0.287456"
       d="m 173.71128,178.12228 v -1.58874 l -3.12568,0.0734 v 1.61318 z"
       id="path76" /></g><g
     inkscape:groupmode="layer"
     id="layer4"
     inkscape:label="bg source"
     style="display:none" /><g
     inkscape:groupmode="layer"
     id="layer3"
     inkscape:label="AYP Roofing text"
     style="display:inline"><text
       xml:space="preserve"
       style="font-size:16.9333px;display:inline;fill:#000000;stroke-width:0.264583"
       x="41.79348"
       y="174.31282"
       id="text3"><tspan
         sodipodi:role="line"
         id="tspan3"
         style="font-style:normal;font-variant:normal;font-weight:bold;font-stretch:normal;font-size:16.9333px;font-family:Play;-inkscape-font-specification:'Play Bold';stroke-width:0.264583"
         x="41.79348"
         y="174.31282">AYP  ROOFING</tspan></text></g><text
     xml:space="preserve"
     transform="matrix(0.82033631,0,0,0.95741001,-233.1806,-488.0185)"
     id="text92"
     style="font-size:7.96134px;letter-spacing:2.08985px;baseline-shift:baseline;white-space:pre;shape-inside:url(#rect92);display:inline;fill:#00ffff;fill-opacity:1"
     x="49.502022"
     y="0"
     inkscape:label="all year... text"><tspan
       x="355.69098"
       y="700.96026"
       id="tspan2"><tspan
         style="font-family:Play;-inkscape-font-specification:Play;text-align:center;text-anchor:middle;fill:#000000"
         id="tspan1">all year protection</tspan></tspan></text><g
     inkscape:label="Layer 1"
     inkscape:groupmode="layer"
     id="layer1"><g
       id="symbol_vector_original"
       transform="rotate(0.8,77.450067,-304.05905)"
       style="display:none"
       inkscape:label="graphic vector original"><path
         style="fill:#00ffff;fill-opacity:1;stroke-width:0.264583"
         d="m 63.087397,158.20754 11.492667,-0.0815 c 0.896591,0 -1.38564,1.63016 -1.38564,1.63016 l -11.655683,-0.16301 z"
         id="path32" /><path
         style="fill:#00ffff;fill-opacity:1;stroke-width:0.264583"
         d="m 71.075208,149.8937 h 2.85279 l -1.304134,1.54866 -2.77128,-0.0815 z"
         id="path33" /><path
         style="fill:#00ffff;fill-opacity:1;stroke-width:0.264583"
         d="m 77.677377,147.36694 2.526757,0.16302 -9.862499,10.02552 -2.037707,-0.16302 z"
         id="path34" /><path
         style="fill:#009e9e;fill-opacity:1;stroke-width:0.264583"
         d="m 89.985127,152.42046 -4.31994,4.72748 -13.448863,-0.0815 4.564462,-4.64597 z"
         id="path35" /><path
         style="fill:#00e0e0;fill-opacity:1;stroke-width:0.264583"
         d="m 78.9,149.73068 -1.385638,1.9562 13.937911,-0.40754 1.467149,-1.71167 z"
         id="path36" /><path
         style="fill:#00e0e0;fill-opacity:1;stroke-width:0.264583"
         d="m 105.5532,133.59205 1.54866,-0.0815 v 1.63016 l -0.81508,0.57056 -0.81508,-0.57056 z"
         id="path37" /><path
         style="fill:#00e0e0;fill-opacity:1;stroke-width:0.264583"
         d="m 97.635763,149.61674 h 2.300435 l -1.592609,1.68109 h -2.211956 z"
         id="path38" /><path
         style="fill:#00e0e0;fill-opacity:1;stroke-width:0.264583"
         d="m 102.63478,135.72565 12.60816,12.87359 h 2.38891 l -13.31598,-13.36021 -2.035,0.0442 z"
         id="path39" /><path
         style="fill:#00e0e0;fill-opacity:1;stroke-width:0.264583"
         d="m 106.66055,136.38924 1.41565,1.10598 1.90228,-2.16772 -2.16772,0.0442 z"
         id="path40" /><path
         style="fill:#00e0e0;fill-opacity:1;stroke-width:0.264583"
         d="m 104.49283,138.99935 0.97326,0.84054 -0.13272,0.66359 -18.491954,19.37674 -2.211959,-0.0885 z"
         id="path41" /><path
         style="fill:#00e0e0;fill-opacity:1;stroke-width:0.264583"
         d="m 106.21816,140.81316 -0.84055,0.84054 0.2212,17.87261 1.8138,-0.13272 -0.44239,-17.87261 z"
         id="path42" /><path
         style="fill:#00e0e0;fill-opacity:1;stroke-width:0.264583"
         d="m 98.609024,157.9337 6.193476,-0.2212 0.0442,1.63685 h -6.149239 z"
         id="path43" /><path
         style="fill:#00e0e0;fill-opacity:1;stroke-width:0.264583"
         d="m 108.12044,157.75674 6.105,-0.0885 0.0885,1.41566 -6.01653,0.13271 z"
         id="path44" /><path
         style="fill:#009e9e;fill-opacity:1;stroke-width:0.264583"
         d="m 104.49283,146.03337 c 0,0 -2.21196,0.92903 -2.2562,2.69859 -0.0442,1.76957 0.0442,5.13174 0.0442,5.13174 l 2.34468,0.0442 0.13271,2.87554 -13.758366,0.13272 4.335436,-4.73359 3.494889,0.0885 2.919781,-3.36217 -3.008258,-0.0442 0.08848,-0.70783 5.618368,-5.57413 z"
         id="path45" /><path
         style="fill:#009e9e;fill-opacity:1;stroke-width:0.264583"
         d="m 107.81727,145.7335 c 0,0 2.21196,0.92903 2.2562,2.69859 0.0442,1.76957 -0.0442,5.13174 -0.0442,5.13174 l -2.34468,0.0442 -0.0442,3.27369 14.51043,-0.26543 -4.51239,-4.64511 -3.53912,-0.0442 -3.53914,-3.31793 2.96403,0.0443 -0.0443,-0.79631 -5.61838,-5.57413 z"
         id="path45-8"
         sodipodi:nodetypes="ccccccccccccc" /><path
         style="fill:#00e0e0;fill-opacity:1;stroke-width:0.264583"
         d="m 113.25828,149.5547 28.18854,-0.50412 1.42833,1.55436 -28.18854,0.50412 z"
         id="path46" /><path
         style="fill:#00e0e0;fill-opacity:1;stroke-width:0.264583"
         d="m 132.45673,146.82407 2.22652,-0.12603 1.59637,1.59637 -2.52059,-0.042 z"
         id="path47" /><path
         style="fill:#00e0e0;fill-opacity:1;stroke-width:0.264583"
         d="m 137.4979,151.82322 2.05848,-0.12602 7.01563,6.97361 h -2.47858 z"
         id="path48" /><path
         style="fill:#00e0e0;fill-opacity:1;stroke-width:0.264583"
         d="m 138.25408,157.28449 3.06671,-0.042 1.76441,1.55436 -3.52882,0.042 -1.42833,-1.38632 z"
         id="path49" /><path
         style="fill:#00e0e0;fill-opacity:1;stroke-width:0.264583"
         d="m 146.61402,157.15846 h 2.98269 l 1.59637,1.42834 -3.23475,0.084 z"
         id="path50" /><path
         style="fill:#009e9e;fill-opacity:1;stroke-width:0.264583"
         d="m 122.62645,152.07528 13.27508,-0.29407 4.41102,4.36902 -13.35909,0.25206 z"
         id="path51" /><path
         style="fill:#00e0e0;fill-opacity:1;stroke-width:0.264583"
         d="m 118.84557,152.07528 2.26853,-0.084 7.01563,6.97362 -2.22652,0.042 z"
         id="path52" /></g><g
       id="g23"
       transform="matrix(0.89646199,0.01251778,-0.01251778,0.89646199,6.4953768,15.012832)"
       style="display:inline;fill:#000000;fill-opacity:1"
       inkscape:label="graphic vector new"><path
         style="fill:#000000;fill-opacity:1;stroke-width:0.264583"
         d="m 63.087397,158.20754 11.492667,-0.0815 c 0.896591,0 -1.38564,1.63016 -1.38564,1.63016 l -11.655683,-0.16301 z"
         id="path2" /><path
         style="fill:#000000;fill-opacity:1;stroke-width:0.264583"
         d="m 71.075208,149.8937 h 2.85279 l -1.304134,1.54866 -2.77128,-0.0815 z"
         id="path3" /><path
         style="fill:#000000;fill-opacity:1;stroke-width:0.264583"
         d="m 77.677377,147.36694 2.526757,0.16302 -9.862499,10.02552 -2.037707,-0.16302 z"
         id="path4" /><path
         style="fill:#000000;fill-opacity:1;stroke-width:0.264583"
         d="m 89.985127,152.42046 -4.31994,4.72748 -13.448863,-0.0815 4.564462,-4.64597 z"
         id="path5" /><path
         style="fill:#000000;fill-opacity:1;stroke-width:0.264583"
         d="m 78.9,149.73068 -1.385638,1.9562 13.937911,-0.40754 1.467149,-1.71167 z"
         id="path6" /><path
         style="fill:#000000;fill-opacity:1;stroke-width:0.264583"
         d="m 105.5532,133.59205 1.54866,-0.0815 v 1.63016 l -0.81508,0.57056 -0.81508,-0.57056 z"
         id="path7" /><path
         style="fill:#000000;fill-opacity:1;stroke-width:0.264583"
         d="m 97.635763,149.61674 h 2.300435 l -1.592609,1.68109 h -2.211956 z"
         id="path8" /><path
         style="fill:#000000;fill-opacity:1;stroke-width:0.264583"
         d="m 102.63478,135.72565 12.60816,12.87359 h 2.38891 l -13.31598,-13.36021 -2.035,0.0442 z"
         id="path9" /><path
         style="fill:#000000;fill-opacity:1;stroke-width:0.264583"
         d="m 106.66055,136.38924 1.41565,1.10598 1.90228,-2.16772 -2.16772,0.0442 z"
         id="path10" /><path
         style="fill:#000000;fill-opacity:1;stroke-width:0.264583"
         d="m 104.49283,138.99935 0.97326,0.84054 -0.13272,0.66359 -18.491954,19.37674 -2.211959,-0.0885 z"
         id="path11" /><path
         style="fill:#000000;fill-opacity:1;stroke-width:0.264583"
         d="m 106.21816,140.81316 -0.84055,0.84054 0.2212,17.87261 1.8138,-0.13272 -0.44239,-17.87261 z"
         id="path12" /><path
         style="fill:#000000;fill-opacity:1;stroke-width:0.264583"
         d="m 98.609024,157.9337 6.193476,-0.2212 0.0442,1.63685 h -6.149239 z"
         id="path13" /><path
         style="fill:#000000;fill-opacity:1;stroke-width:0.264583"
         d="m 108.12044,157.75674 6.105,-0.0885 0.0885,1.41566 -6.01653,0.13271 z"
         id="path14" /><path
         style="fill:#000000;fill-opacity:1;stroke-width:0.264583"
         d="m 104.49283,146.03337 c 0,0 -2.21196,0.92903 -2.2562,2.69859 -0.0442,1.76957 0.0442,5.13174 0.0442,5.13174 l 2.34468,0.0442 0.13271,2.87554 -13.758366,0.13272 4.335436,-4.73359 3.494889,0.0885 2.919781,-3.36217 -3.008258,-0.0442 0.08848,-0.70783 5.618368,-5.57413 z"
         id="path15" /><path
         style="fill:#000000;fill-opacity:1;stroke-width:0.264583"
         d="m 107.81727,145.7335 c 0,0 2.21196,0.92903 2.2562,2.69859 0.0442,1.76957 -0.0442,5.13174 -0.0442,5.13174 l -2.34468,0.0442 -0.0442,3.27369 14.51043,-0.26543 -4.51239,-4.64511 -3.53912,-0.0442 -3.53914,-3.31793 2.96403,0.0443 -0.0443,-0.79631 -5.61838,-5.57413 z"
         id="path16"
         sodipodi:nodetypes="ccccccccccccc" /><path
         style="fill:#000000;fill-opacity:1;stroke-width:0.264583"
         d="m 113.25828,149.5547 28.18854,-0.50412 1.42833,1.55436 -28.18854,0.50412 z"
         id="path17" /><path
         style="fill:#000000;fill-opacity:1;stroke-width:0.264583"
         d="m 132.45673,146.82407 2.22652,-0.12603 1.59637,1.59637 -2.52059,-0.042 z"
         id="path18" /><path
         style="fill:#000000;fill-opacity:1;stroke-width:0.264583"
         d="m 137.4979,151.82322 2.05848,-0.12602 7.01563,6.97361 h -2.47858 z"
         id="path19" /><path
         style="fill:#000000;fill-opacity:1;stroke-width:0.264583"
         d="m 138.25408,157.28449 3.06671,-0.042 1.76441,1.55436 -3.52882,0.042 -1.42833,-1.38632 z"
         id="path20" /><path
         style="fill:#000000;fill-opacity:1;stroke-width:0.264583"
         d="m 146.61402,157.15846 h 2.98269 l 1.59637,1.42834 -3.23475,0.084 z"
         id="path21" /><path
         style="fill:#000000;fill-opacity:1;stroke-width:0.264583"
         d="m 122.62645,152.07528 13.27508,-0.29407 4.41102,4.36902 -13.35909,0.25206 z"
         id="path22" /><path
         style="fill:#000000;fill-opacity:1;stroke-width:0.264583"
         d="m 118.84557,152.07528 2.26853,-0.084 7.01563,6.97362 -2.22652,0.042 z"
         id="path23" /></g></g></svg>
